<?xml version="1.0" encoding="utf-8" standalone="no"?>
<!DOCTYPE svg PUBLIC "-//W3C//DTD SVG 1.1//EN"
  "http://www.w3.org/Graphics/SVG/1.1/DTD/svg11.dtd">
<svg xmlns:xlink="http://www.w3.org/1999/xlink" width="576pt" height="288pt" viewBox="0 0 576 288" xmlns="http://www.w3.org/2000/svg" version="1.1">
 <metadata>
  <rdf:RDF xmlns:dc="http://purl.org/dc/elements/1.1/" xmlns:cc="http://creativecommons.org/ns#" xmlns:rdf="http://www.w3.org/1999/02/22-rdf-syntax-ns#">
   <cc:Work>
    <dc:type rdf:resource="http://purl.org/dc/dcmitype/StillImage"/>
    <dc:date>2023-03-29T16:57:25.791599</dc:date>
    <dc:format>image/svg+xml</dc:format>
    <dc:creator>
     <cc:Agent>
      <dc:title>Matplotlib v3.7.1, https://matplotlib.org/</dc:title>
     </cc:Agent>
    </dc:creator>
   </cc:Work>
  </rdf:RDF>
 </metadata>
 <defs>
  <style type="text/css">*{stroke-linejoin: round; stroke-linecap: butt}</style>
 </defs>
 <g id="figure_1">
  <g id="patch_1">
   <path d="M 0 288 
L 576 288 
L 576 0 
L 0 0 
z
" style="fill: #ffffff"/>
  </g>
  <g id="axes_1">
   <g id="patch_2">
    <path d="M 53.37 235.116 
L 563.04 235.116 
L 563.04 29.04 
L 53.37 29.04 
L 53.37 235.116 
z
" style="fill: none"/>
   </g>
   <g id="LineCollection_1">
    <path d="M 76.536818 80.610866 
L 127.486844 80.610866 
" clip-path="url(#p4750d8d5fb)" style="fill: none; stroke: #4c72b0; stroke-width: 1.5"/>
   </g>
   <g id="LineCollection_2">
    <path d="M 106.616895 103.498855 
L 106.616895 57.722878 
" clip-path="url(#p4750d8d5fb)" style="fill: none; stroke: #4c72b0; stroke-width: 1.5"/>
   </g>
   <g id="LineCollection_3">
    <path d="M 407.310581 73.179321 
L 407.431997 73.179321 
" clip-path="url(#p4750d8d5fb)" style="fill: none; stroke: #dd8452; stroke-width: 1.5"/>
   </g>
   <g id="LineCollection_4">
    <path d="M 407.371316 107.951551 
L 407.371316 38.407091 
" clip-path="url(#p4750d8d5fb)" style="fill: none; stroke: #dd8452; stroke-width: 1.5"/>
   </g>
   <g id="LineCollection_5">
    <path d="M 252.650984 165.090948 
L 304.998115 165.090948 
" clip-path="url(#p4750d8d5fb)" style="fill: none; stroke: #55a868; stroke-width: 1.5"/>
   </g>
   <g id="LineCollection_6">
    <path d="M 283.679777 225.748909 
L 283.679777 104.432987 
" clip-path="url(#p4750d8d5fb)" style="fill: none; stroke: #55a868; stroke-width: 1.5"/>
   </g>
   <g id="LineCollection_7">
    <path d="M 481.020719 81.009022 
L 539.873182 81.009022 
" clip-path="url(#p4750d8d5fb)" style="fill: none; stroke: #f3a0f2; stroke-width: 1.5"/>
   </g>
   <g id="LineCollection_8">
    <path d="M 516.547267 106.053029 
L 516.547267 55.965015 
" clip-path="url(#p4750d8d5fb)" style="fill: none; stroke: #f3a0f2; stroke-width: 1.5"/>
   </g>
   <g id="line2d_1">
    <path d="M 106.616895 80.610866 
" clip-path="url(#p4750d8d5fb)" style="fill: none; stroke: #4c72b0; stroke-width: 1.5; stroke-linecap: round"/>
    <defs>
     <path id="m5c6a0035f1" d="M 0 6 
C 1.591219 6 3.117479 5.367802 4.242641 4.242641 
C 5.367802 3.117479 6 1.591219 6 0 
C 6 -1.591219 5.367802 -3.117479 4.242641 -4.242641 
C 3.117479 -5.367802 1.591219 -6 0 -6 
C -1.591219 -6 -3.117479 -5.367802 -4.242641 -4.242641 
C -5.367802 -3.117479 -6 -1.591219 -6 0 
C -6 1.591219 -5.367802 3.117479 -4.242641 4.242641 
C -3.117479 5.367802 -1.591219 6 0 6 
z
" style="stroke: #4c72b0"/>
    </defs>
    <g clip-path="url(#p4750d8d5fb)">
     <use xlink:href="#m5c6a0035f1" x="106.616895" y="80.610866" style="fill: #4c72b0; stroke: #4c72b0"/>
    </g>
   </g>
   <g id="line2d_2">
    <path d="M 407.371316 73.179321 
" clip-path="url(#p4750d8d5fb)" style="fill: none; stroke: #dd8452; stroke-width: 1.5; stroke-linecap: round"/>
    <defs>
     <path id="m2573878e28" d="M 0 6 
C 1.591219 6 3.117479 5.367802 4.242641 4.242641 
C 5.367802 3.117479 6 1.591219 6 0 
C 6 -1.591219 5.367802 -3.117479 4.242641 -4.242641 
C 3.117479 -5.367802 1.591219 -6 0 -6 
C -1.591219 -6 -3.117479 -5.367802 -4.242641 -4.242641 
C -5.367802 -3.117479 -6 -1.591219 -6 0 
C -6 1.591219 -5.367802 3.117479 -4.242641 4.242641 
C -3.117479 5.367802 -1.591219 6 0 6 
z
" style="stroke: #dd8452"/>
    </defs>
    <g clip-path="url(#p4750d8d5fb)">
     <use xlink:href="#m2573878e28" x="407.371316" y="73.179321" style="fill: #dd8452; stroke: #dd8452"/>
    </g>
   </g>
   <g id="line2d_3">
    <path d="M 283.679777 165.090948 
" clip-path="url(#p4750d8d5fb)" style="fill: none; stroke: #55a868; stroke-width: 1.5; stroke-linecap: round"/>
    <defs>
     <path id="mea0dc1d50e" d="M 0 6 
C 1.591219 6 3.117479 5.367802 4.242641 4.242641 
C 5.367802 3.117479 6 1.591219 6 0 
C 6 -1.591219 5.367802 -3.117479 4.242641 -4.242641 
C 3.117479 -5.367802 1.591219 -6 0 -6 
C -1.591219 -6 -3.117479 -5.367802 -4.242641 -4.242641 
C -5.367802 -3.117479 -6 -1.591219 -6 0 
C -6 1.591219 -5.367802 3.117479 -4.242641 4.242641 
C -3.117479 5.367802 -1.591219 6 0 6 
z
" style="stroke: #55a868"/>
    </defs>
    <g clip-path="url(#p4750d8d5fb)">
     <use xlink:href="#mea0dc1d50e" x="283.679777" y="165.090948" style="fill: #55a868; stroke: #55a868"/>
    </g>
   </g>
   <g id="line2d_4">
    <path d="M 516.547267 81.009022 
" clip-path="url(#p4750d8d5fb)" style="fill: none; stroke: #f3a0f2; stroke-width: 1.5; stroke-linecap: round"/>
    <defs>
     <path id="mbe9b9142c6" d="M 0 6 
C 1.591219 6 3.117479 5.367802 4.242641 4.242641 
C 5.367802 3.117479 6 1.591219 6 0 
C 6 -1.591219 5.367802 -3.117479 4.242641 -4.242641 
C 3.117479 -5.367802 1.591219 -6 0 -6 
C -1.591219 -6 -3.117479 -5.367802 -4.242641 -4.242641 
C -5.367802 -3.117479 -6 -1.591219 -6 0 
C -6 1.591219 -5.367802 3.117479 -4.242641 4.242641 
C -3.117479 5.367802 -1.591219 6 0 6 
z
" style="stroke: #f3a0f2"/>
    </defs>
    <g clip-path="url(#p4750d8d5fb)">
     <use xlink:href="#mbe9b9142c6" x="516.547267" y="81.009022" style="fill: #f3a0f2; stroke: #f3a0f2"/>
    </g>
   </g>
   <g id="patch_3">
    <path d="M 53.37 235.116 
L 53.37 29.04 
" style="fill: none; stroke: #d3d3d3; stroke-width: 1.25; stroke-linejoin: miter; stroke-linecap: square"/>
   </g>
   <g id="patch_4">
    <path d="M 53.37 235.116 
L 563.04 235.116 
" style="fill: none; stroke: #d3d3d3; stroke-width: 1.25; stroke-linejoin: miter; stroke-linecap: square"/>
   </g>
   <g id="matplotlib.axis_1">
    <g id="xtick_1">
     <g id="line2d_5">
      <path d="M 112.433189 235.116 
L 112.433189 29.04 
" clip-path="url(#p4750d8d5fb)" style="fill: none; stroke: #696969; stroke-opacity: 0.3; stroke-linecap: round"/>
     </g>
     <g id="line2d_6">
      <defs>
       <path id="m51095bdd04" d="M 0 0 
L 0 6 
" style="stroke: #696969; stroke-width: 1.25"/>
      </defs>
      <g>
       <use xlink:href="#m51095bdd04" x="112.433189" y="235.116" style="fill: #696969; stroke: #696969; stroke-width: 1.25"/>
      </g>
     </g>
     <g id="text_1">
      <!-- $\mathdefault{10^{2}}$ -->
      <g style="fill: #696969" transform="translate(102.753189 252.974281) scale(0.11 -0.11)">
       <defs>
        <path id="DejaVuSans-31" d="M 794 531 
L 1825 531 
L 1825 4091 
L 703 3866 
L 703 4441 
L 1819 4666 
L 2450 4666 
L 2450 531 
L 3481 531 
L 3481 0 
L 794 0 
L 794 531 
z
" transform="scale(0.015625)"/>
        <path id="DejaVuSans-30" d="M 2034 4250 
Q 1547 4250 1301 3770 
Q 1056 3291 1056 2328 
Q 1056 1369 1301 889 
Q 1547 409 2034 409 
Q 2525 409 2770 889 
Q 3016 1369 3016 2328 
Q 3016 3291 2770 3770 
Q 2525 4250 2034 4250 
z
M 2034 4750 
Q 2819 4750 3233 4129 
Q 3647 3509 3647 2328 
Q 3647 1150 3233 529 
Q 2819 -91 2034 -91 
Q 1250 -91 836 529 
Q 422 1150 422 2328 
Q 422 3509 836 4129 
Q 1250 4750 2034 4750 
z
" transform="scale(0.015625)"/>
        <path id="DejaVuSans-32" d="M 1228 531 
L 3431 531 
L 3431 0 
L 469 0 
L 469 531 
Q 828 903 1448 1529 
Q 2069 2156 2228 2338 
Q 2531 2678 2651 2914 
Q 2772 3150 2772 3378 
Q 2772 3750 2511 3984 
Q 2250 4219 1831 4219 
Q 1534 4219 1204 4116 
Q 875 4013 500 3803 
L 500 4441 
Q 881 4594 1212 4672 
Q 1544 4750 1819 4750 
Q 2544 4750 2975 4387 
Q 3406 4025 3406 3419 
Q 3406 3131 3298 2873 
Q 3191 2616 2906 2266 
Q 2828 2175 2409 1742 
Q 1991 1309 1228 531 
z
" transform="scale(0.015625)"/>
       </defs>
       <use xlink:href="#DejaVuSans-31" transform="translate(0 0.765625)"/>
       <use xlink:href="#DejaVuSans-30" transform="translate(63.623047 0.765625)"/>
       <use xlink:href="#DejaVuSans-32" transform="translate(128.203125 39.046875) scale(0.7)"/>
      </g>
     </g>
    </g>
    <g id="xtick_2">
     <g id="line2d_7">
      <path d="M 271.115143 235.116 
L 271.115143 29.04 
" clip-path="url(#p4750d8d5fb)" style="fill: none; stroke: #696969; stroke-opacity: 0.3; stroke-linecap: round"/>
     </g>
     <g id="line2d_8">
      <g>
       <use xlink:href="#m51095bdd04" x="271.115143" y="235.116" style="fill: #696969; stroke: #696969; stroke-width: 1.25"/>
      </g>
     </g>
     <g id="text_2">
      <!-- $\mathdefault{10^{3}}$ -->
      <g style="fill: #696969" transform="translate(261.435143 252.974281) scale(0.11 -0.11)">
       <defs>
        <path id="DejaVuSans-33" d="M 2597 2516 
Q 3050 2419 3304 2112 
Q 3559 1806 3559 1356 
Q 3559 666 3084 287 
Q 2609 -91 1734 -91 
Q 1441 -91 1130 -33 
Q 819 25 488 141 
L 488 750 
Q 750 597 1062 519 
Q 1375 441 1716 441 
Q 2309 441 2620 675 
Q 2931 909 2931 1356 
Q 2931 1769 2642 2001 
Q 2353 2234 1838 2234 
L 1294 2234 
L 1294 2753 
L 1863 2753 
Q 2328 2753 2575 2939 
Q 2822 3125 2822 3475 
Q 2822 3834 2567 4026 
Q 2313 4219 1838 4219 
Q 1578 4219 1281 4162 
Q 984 4106 628 3988 
L 628 4550 
Q 988 4650 1302 4700 
Q 1616 4750 1894 4750 
Q 2613 4750 3031 4423 
Q 3450 4097 3450 3541 
Q 3450 3153 3228 2886 
Q 3006 2619 2597 2516 
z
" transform="scale(0.015625)"/>
       </defs>
       <use xlink:href="#DejaVuSans-31" transform="translate(0 0.765625)"/>
       <use xlink:href="#DejaVuSans-30" transform="translate(63.623047 0.765625)"/>
       <use xlink:href="#DejaVuSans-33" transform="translate(128.203125 39.046875) scale(0.7)"/>
      </g>
     </g>
    </g>
    <g id="xtick_3">
     <g id="line2d_9">
      <path d="M 429.797096 235.116 
L 429.797096 29.04 
" clip-path="url(#p4750d8d5fb)" style="fill: none; stroke: #696969; stroke-opacity: 0.3; stroke-linecap: round"/>
     </g>
     <g id="line2d_10">
      <g>
       <use xlink:href="#m51095bdd04" x="429.797096" y="235.116" style="fill: #696969; stroke: #696969; stroke-width: 1.25"/>
      </g>
     </g>
     <g id="text_3">
      <!-- $\mathdefault{10^{4}}$ -->
      <g style="fill: #696969" transform="translate(420.117096 252.974281) scale(0.11 -0.11)">
       <defs>
        <path id="DejaVuSans-34" d="M 2419 4116 
L 825 1625 
L 2419 1625 
L 2419 4116 
z
M 2253 4666 
L 3047 4666 
L 3047 1625 
L 3713 1625 
L 3713 1100 
L 3047 1100 
L 3047 0 
L 2419 0 
L 2419 1100 
L 313 1100 
L 313 1709 
L 2253 4666 
z
" transform="scale(0.015625)"/>
       </defs>
       <use xlink:href="#DejaVuSans-31" transform="translate(0 0.684375)"/>
       <use xlink:href="#DejaVuSans-30" transform="translate(63.623047 0.684375)"/>
       <use xlink:href="#DejaVuSans-34" transform="translate(128.203125 38.965625) scale(0.7)"/>
      </g>
     </g>
    </g>
    <g id="xtick_4">
     <g id="line2d_11">
      <path d="M 64.665161 235.116 
L 64.665161 29.04 
" clip-path="url(#p4750d8d5fb)" style="fill: none; stroke: #696969; stroke-opacity: 0.1; stroke-linecap: round"/>
     </g>
     <g id="line2d_12">
      <defs>
       <path id="m21e77e3320" d="M 0 0 
L 0 4 
" style="stroke: #696969"/>
      </defs>
      <g>
       <use xlink:href="#m21e77e3320" x="64.665161" y="235.116" style="fill: #696969; stroke: #696969"/>
      </g>
     </g>
    </g>
    <g id="xtick_5">
     <g id="line2d_13">
      <path d="M 77.229796 235.116 
L 77.229796 29.04 
" clip-path="url(#p4750d8d5fb)" style="fill: none; stroke: #696969; stroke-opacity: 0.1; stroke-linecap: round"/>
     </g>
     <g id="line2d_14">
      <g>
       <use xlink:href="#m21e77e3320" x="77.229796" y="235.116" style="fill: #696969; stroke: #696969"/>
      </g>
     </g>
    </g>
    <g id="xtick_6">
     <g id="line2d_15">
      <path d="M 87.853043 235.116 
L 87.853043 29.04 
" clip-path="url(#p4750d8d5fb)" style="fill: none; stroke: #696969; stroke-opacity: 0.1; stroke-linecap: round"/>
     </g>
     <g id="line2d_16">
      <g>
       <use xlink:href="#m21e77e3320" x="87.853043" y="235.116" style="fill: #696969; stroke: #696969"/>
      </g>
     </g>
    </g>
    <g id="xtick_7">
     <g id="line2d_17">
      <path d="M 97.055319 235.116 
L 97.055319 29.04 
" clip-path="url(#p4750d8d5fb)" style="fill: none; stroke: #696969; stroke-opacity: 0.1; stroke-linecap: round"/>
     </g>
     <g id="line2d_18">
      <g>
       <use xlink:href="#m21e77e3320" x="97.055319" y="235.116" style="fill: #696969; stroke: #696969"/>
      </g>
     </g>
    </g>
    <g id="xtick_8">
     <g id="line2d_19">
      <path d="M 105.172301 235.116 
L 105.172301 29.04 
" clip-path="url(#p4750d8d5fb)" style="fill: none; stroke: #696969; stroke-opacity: 0.1; stroke-linecap: round"/>
     </g>
     <g id="line2d_20">
      <g>
       <use xlink:href="#m21e77e3320" x="105.172301" y="235.116" style="fill: #696969; stroke: #696969"/>
      </g>
     </g>
    </g>
    <g id="xtick_9">
     <g id="line2d_21">
      <path d="M 160.201217 235.116 
L 160.201217 29.04 
" clip-path="url(#p4750d8d5fb)" style="fill: none; stroke: #696969; stroke-opacity: 0.1; stroke-linecap: round"/>
     </g>
     <g id="line2d_22">
      <g>
       <use xlink:href="#m21e77e3320" x="160.201217" y="235.116" style="fill: #696969; stroke: #696969"/>
      </g>
     </g>
    </g>
    <g id="xtick_10">
     <g id="line2d_23">
      <path d="M 188.143722 235.116 
L 188.143722 29.04 
" clip-path="url(#p4750d8d5fb)" style="fill: none; stroke: #696969; stroke-opacity: 0.1; stroke-linecap: round"/>
     </g>
     <g id="line2d_24">
      <g>
       <use xlink:href="#m21e77e3320" x="188.143722" y="235.116" style="fill: #696969; stroke: #696969"/>
      </g>
     </g>
    </g>
    <g id="xtick_11">
     <g id="line2d_25">
      <path d="M 207.969245 235.116 
L 207.969245 29.04 
" clip-path="url(#p4750d8d5fb)" style="fill: none; stroke: #696969; stroke-opacity: 0.1; stroke-linecap: round"/>
     </g>
     <g id="line2d_26">
      <g>
       <use xlink:href="#m21e77e3320" x="207.969245" y="235.116" style="fill: #696969; stroke: #696969"/>
      </g>
     </g>
    </g>
    <g id="xtick_12">
     <g id="line2d_27">
      <path d="M 223.347115 235.116 
L 223.347115 29.04 
" clip-path="url(#p4750d8d5fb)" style="fill: none; stroke: #696969; stroke-opacity: 0.1; stroke-linecap: round"/>
     </g>
     <g id="line2d_28">
      <g>
       <use xlink:href="#m21e77e3320" x="223.347115" y="235.116" style="fill: #696969; stroke: #696969"/>
      </g>
     </g>
    </g>
    <g id="xtick_13">
     <g id="line2d_29">
      <path d="M 235.91175 235.116 
L 235.91175 29.04 
" clip-path="url(#p4750d8d5fb)" style="fill: none; stroke: #696969; stroke-opacity: 0.1; stroke-linecap: round"/>
     </g>
     <g id="line2d_30">
      <g>
       <use xlink:href="#m21e77e3320" x="235.91175" y="235.116" style="fill: #696969; stroke: #696969"/>
      </g>
     </g>
    </g>
    <g id="xtick_14">
     <g id="line2d_31">
      <path d="M 246.534997 235.116 
L 246.534997 29.04 
" clip-path="url(#p4750d8d5fb)" style="fill: none; stroke: #696969; stroke-opacity: 0.1; stroke-linecap: round"/>
     </g>
     <g id="line2d_32">
      <g>
       <use xlink:href="#m21e77e3320" x="246.534997" y="235.116" style="fill: #696969; stroke: #696969"/>
      </g>
     </g>
    </g>
    <g id="xtick_15">
     <g id="line2d_33">
      <path d="M 255.737272 235.116 
L 255.737272 29.04 
" clip-path="url(#p4750d8d5fb)" style="fill: none; stroke: #696969; stroke-opacity: 0.1; stroke-linecap: round"/>
     </g>
     <g id="line2d_34">
      <g>
       <use xlink:href="#m21e77e3320" x="255.737272" y="235.116" style="fill: #696969; stroke: #696969"/>
      </g>
     </g>
    </g>
    <g id="xtick_16">
     <g id="line2d_35">
      <path d="M 263.854255 235.116 
L 263.854255 29.04 
" clip-path="url(#p4750d8d5fb)" style="fill: none; stroke: #696969; stroke-opacity: 0.1; stroke-linecap: round"/>
     </g>
     <g id="line2d_36">
      <g>
       <use xlink:href="#m21e77e3320" x="263.854255" y="235.116" style="fill: #696969; stroke: #696969"/>
      </g>
     </g>
    </g>
    <g id="xtick_17">
     <g id="line2d_37">
      <path d="M 318.88317 235.116 
L 318.88317 29.04 
" clip-path="url(#p4750d8d5fb)" style="fill: none; stroke: #696969; stroke-opacity: 0.1; stroke-linecap: round"/>
     </g>
     <g id="line2d_38">
      <g>
       <use xlink:href="#m21e77e3320" x="318.88317" y="235.116" style="fill: #696969; stroke: #696969"/>
      </g>
     </g>
    </g>
    <g id="xtick_18">
     <g id="line2d_39">
      <path d="M 346.825675 235.116 
L 346.825675 29.04 
" clip-path="url(#p4750d8d5fb)" style="fill: none; stroke: #696969; stroke-opacity: 0.1; stroke-linecap: round"/>
     </g>
     <g id="line2d_40">
      <g>
       <use xlink:href="#m21e77e3320" x="346.825675" y="235.116" style="fill: #696969; stroke: #696969"/>
      </g>
     </g>
    </g>
    <g id="xtick_19">
     <g id="line2d_41">
      <path d="M 366.651198 235.116 
L 366.651198 29.04 
" clip-path="url(#p4750d8d5fb)" style="fill: none; stroke: #696969; stroke-opacity: 0.1; stroke-linecap: round"/>
     </g>
     <g id="line2d_42">
      <g>
       <use xlink:href="#m21e77e3320" x="366.651198" y="235.116" style="fill: #696969; stroke: #696969"/>
      </g>
     </g>
    </g>
    <g id="xtick_20">
     <g id="line2d_43">
      <path d="M 382.029068 235.116 
L 382.029068 29.04 
" clip-path="url(#p4750d8d5fb)" style="fill: none; stroke: #696969; stroke-opacity: 0.1; stroke-linecap: round"/>
     </g>
     <g id="line2d_44">
      <g>
       <use xlink:href="#m21e77e3320" x="382.029068" y="235.116" style="fill: #696969; stroke: #696969"/>
      </g>
     </g>
    </g>
    <g id="xtick_21">
     <g id="line2d_45">
      <path d="M 394.593703 235.116 
L 394.593703 29.04 
" clip-path="url(#p4750d8d5fb)" style="fill: none; stroke: #696969; stroke-opacity: 0.1; stroke-linecap: round"/>
     </g>
     <g id="line2d_46">
      <g>
       <use xlink:href="#m21e77e3320" x="394.593703" y="235.116" style="fill: #696969; stroke: #696969"/>
      </g>
     </g>
    </g>
    <g id="xtick_22">
     <g id="line2d_47">
      <path d="M 405.21695 235.116 
L 405.21695 29.04 
" clip-path="url(#p4750d8d5fb)" style="fill: none; stroke: #696969; stroke-opacity: 0.1; stroke-linecap: round"/>
     </g>
     <g id="line2d_48">
      <g>
       <use xlink:href="#m21e77e3320" x="405.21695" y="235.116" style="fill: #696969; stroke: #696969"/>
      </g>
     </g>
    </g>
    <g id="xtick_23">
     <g id="line2d_49">
      <path d="M 414.419226 235.116 
L 414.419226 29.04 
" clip-path="url(#p4750d8d5fb)" style="fill: none; stroke: #696969; stroke-opacity: 0.1; stroke-linecap: round"/>
     </g>
     <g id="line2d_50">
      <g>
       <use xlink:href="#m21e77e3320" x="414.419226" y="235.116" style="fill: #696969; stroke: #696969"/>
      </g>
     </g>
    </g>
    <g id="xtick_24">
     <g id="line2d_51">
      <path d="M 422.536208 235.116 
L 422.536208 29.04 
" clip-path="url(#p4750d8d5fb)" style="fill: none; stroke: #696969; stroke-opacity: 0.1; stroke-linecap: round"/>
     </g>
     <g id="line2d_52">
      <g>
       <use xlink:href="#m21e77e3320" x="422.536208" y="235.116" style="fill: #696969; stroke: #696969"/>
      </g>
     </g>
    </g>
    <g id="xtick_25">
     <g id="line2d_53">
      <path d="M 477.565124 235.116 
L 477.565124 29.04 
" clip-path="url(#p4750d8d5fb)" style="fill: none; stroke: #696969; stroke-opacity: 0.1; stroke-linecap: round"/>
     </g>
     <g id="line2d_54">
      <g>
       <use xlink:href="#m21e77e3320" x="477.565124" y="235.116" style="fill: #696969; stroke: #696969"/>
      </g>
     </g>
    </g>
    <g id="xtick_26">
     <g id="line2d_55">
      <path d="M 505.507629 235.116 
L 505.507629 29.04 
" clip-path="url(#p4750d8d5fb)" style="fill: none; stroke: #696969; stroke-opacity: 0.1; stroke-linecap: round"/>
     </g>
     <g id="line2d_56">
      <g>
       <use xlink:href="#m21e77e3320" x="505.507629" y="235.116" style="fill: #696969; stroke: #696969"/>
      </g>
     </g>
    </g>
    <g id="xtick_27">
     <g id="line2d_57">
      <path d="M 525.333152 235.116 
L 525.333152 29.04 
" clip-path="url(#p4750d8d5fb)" style="fill: none; stroke: #696969; stroke-opacity: 0.1; stroke-linecap: round"/>
     </g>
     <g id="line2d_58">
      <g>
       <use xlink:href="#m21e77e3320" x="525.333152" y="235.116" style="fill: #696969; stroke: #696969"/>
      </g>
     </g>
    </g>
    <g id="xtick_28">
     <g id="line2d_59">
      <path d="M 540.711022 235.116 
L 540.711022 29.04 
" clip-path="url(#p4750d8d5fb)" style="fill: none; stroke: #696969; stroke-opacity: 0.1; stroke-linecap: round"/>
     </g>
     <g id="line2d_60">
      <g>
       <use xlink:href="#m21e77e3320" x="540.711022" y="235.116" style="fill: #696969; stroke: #696969"/>
      </g>
     </g>
    </g>
    <g id="xtick_29">
     <g id="line2d_61">
      <path d="M 553.275657 235.116 
L 553.275657 29.04 
" clip-path="url(#p4750d8d5fb)" style="fill: none; stroke: #696969; stroke-opacity: 0.1; stroke-linecap: round"/>
     </g>
     <g id="line2d_62">
      <g>
       <use xlink:href="#m21e77e3320" x="553.275657" y="235.116" style="fill: #696969; stroke: #696969"/>
      </g>
     </g>
    </g>
    <g id="text_4">
     <!-- Training time (s) -->
     <g style="fill: #696969" transform="translate(259.3575 268.380063) scale(0.12 -0.12)">
      <defs>
       <path id="DejaVuSans-54" d="M -19 4666 
L 3928 4666 
L 3928 4134 
L 2272 4134 
L 2272 0 
L 1638 0 
L 1638 4134 
L -19 4134 
L -19 4666 
z
" transform="scale(0.015625)"/>
       <path id="DejaVuSans-72" d="M 2631 2963 
Q 2534 3019 2420 3045 
Q 2306 3072 2169 3072 
Q 1681 3072 1420 2755 
Q 1159 2438 1159 1844 
L 1159 0 
L 581 0 
L 581 3500 
L 1159 3500 
L 1159 2956 
Q 1341 3275 1631 3429 
Q 1922 3584 2338 3584 
Q 2397 3584 2469 3576 
Q 2541 3569 2628 3553 
L 2631 2963 
z
" transform="scale(0.015625)"/>
       <path id="DejaVuSans-61" d="M 2194 1759 
Q 1497 1759 1228 1600 
Q 959 1441 959 1056 
Q 959 750 1161 570 
Q 1363 391 1709 391 
Q 2188 391 2477 730 
Q 2766 1069 2766 1631 
L 2766 1759 
L 2194 1759 
z
M 3341 1997 
L 3341 0 
L 2766 0 
L 2766 531 
Q 2569 213 2275 61 
Q 1981 -91 1556 -91 
Q 1019 -91 701 211 
Q 384 513 384 1019 
Q 384 1609 779 1909 
Q 1175 2209 1959 2209 
L 2766 2209 
L 2766 2266 
Q 2766 2663 2505 2880 
Q 2244 3097 1772 3097 
Q 1472 3097 1187 3025 
Q 903 2953 641 2809 
L 641 3341 
Q 956 3463 1253 3523 
Q 1550 3584 1831 3584 
Q 2591 3584 2966 3190 
Q 3341 2797 3341 1997 
z
" transform="scale(0.015625)"/>
       <path id="DejaVuSans-69" d="M 603 3500 
L 1178 3500 
L 1178 0 
L 603 0 
L 603 3500 
z
M 603 4863 
L 1178 4863 
L 1178 4134 
L 603 4134 
L 603 4863 
z
" transform="scale(0.015625)"/>
       <path id="DejaVuSans-6e" d="M 3513 2113 
L 3513 0 
L 2938 0 
L 2938 2094 
Q 2938 2591 2744 2837 
Q 2550 3084 2163 3084 
Q 1697 3084 1428 2787 
Q 1159 2491 1159 1978 
L 1159 0 
L 581 0 
L 581 3500 
L 1159 3500 
L 1159 2956 
Q 1366 3272 1645 3428 
Q 1925 3584 2291 3584 
Q 2894 3584 3203 3211 
Q 3513 2838 3513 2113 
z
" transform="scale(0.015625)"/>
       <path id="DejaVuSans-67" d="M 2906 1791 
Q 2906 2416 2648 2759 
Q 2391 3103 1925 3103 
Q 1463 3103 1205 2759 
Q 947 2416 947 1791 
Q 947 1169 1205 825 
Q 1463 481 1925 481 
Q 2391 481 2648 825 
Q 2906 1169 2906 1791 
z
M 3481 434 
Q 3481 -459 3084 -895 
Q 2688 -1331 1869 -1331 
Q 1566 -1331 1297 -1286 
Q 1028 -1241 775 -1147 
L 775 -588 
Q 1028 -725 1275 -790 
Q 1522 -856 1778 -856 
Q 2344 -856 2625 -561 
Q 2906 -266 2906 331 
L 2906 616 
Q 2728 306 2450 153 
Q 2172 0 1784 0 
Q 1141 0 747 490 
Q 353 981 353 1791 
Q 353 2603 747 3093 
Q 1141 3584 1784 3584 
Q 2172 3584 2450 3431 
Q 2728 3278 2906 2969 
L 2906 3500 
L 3481 3500 
L 3481 434 
z
" transform="scale(0.015625)"/>
       <path id="DejaVuSans-20" transform="scale(0.015625)"/>
       <path id="DejaVuSans-74" d="M 1172 4494 
L 1172 3500 
L 2356 3500 
L 2356 3053 
L 1172 3053 
L 1172 1153 
Q 1172 725 1289 603 
Q 1406 481 1766 481 
L 2356 481 
L 2356 0 
L 1766 0 
Q 1100 0 847 248 
Q 594 497 594 1153 
L 594 3053 
L 172 3053 
L 172 3500 
L 594 3500 
L 594 4494 
L 1172 4494 
z
" transform="scale(0.015625)"/>
       <path id="DejaVuSans-6d" d="M 3328 2828 
Q 3544 3216 3844 3400 
Q 4144 3584 4550 3584 
Q 5097 3584 5394 3201 
Q 5691 2819 5691 2113 
L 5691 0 
L 5113 0 
L 5113 2094 
Q 5113 2597 4934 2840 
Q 4756 3084 4391 3084 
Q 3944 3084 3684 2787 
Q 3425 2491 3425 1978 
L 3425 0 
L 2847 0 
L 2847 2094 
Q 2847 2600 2669 2842 
Q 2491 3084 2119 3084 
Q 1678 3084 1418 2786 
Q 1159 2488 1159 1978 
L 1159 0 
L 581 0 
L 581 3500 
L 1159 3500 
L 1159 2956 
Q 1356 3278 1631 3431 
Q 1906 3584 2284 3584 
Q 2666 3584 2933 3390 
Q 3200 3197 3328 2828 
z
" transform="scale(0.015625)"/>
       <path id="DejaVuSans-65" d="M 3597 1894 
L 3597 1613 
L 953 1613 
Q 991 1019 1311 708 
Q 1631 397 2203 397 
Q 2534 397 2845 478 
Q 3156 559 3463 722 
L 3463 178 
Q 3153 47 2828 -22 
Q 2503 -91 2169 -91 
Q 1331 -91 842 396 
Q 353 884 353 1716 
Q 353 2575 817 3079 
Q 1281 3584 2069 3584 
Q 2775 3584 3186 3129 
Q 3597 2675 3597 1894 
z
M 3022 2063 
Q 3016 2534 2758 2815 
Q 2500 3097 2075 3097 
Q 1594 3097 1305 2825 
Q 1016 2553 972 2059 
L 3022 2063 
z
" transform="scale(0.015625)"/>
       <path id="DejaVuSans-28" d="M 1984 4856 
Q 1566 4138 1362 3434 
Q 1159 2731 1159 2009 
Q 1159 1288 1364 580 
Q 1569 -128 1984 -844 
L 1484 -844 
Q 1016 -109 783 600 
Q 550 1309 550 2009 
Q 550 2706 781 3412 
Q 1013 4119 1484 4856 
L 1984 4856 
z
" transform="scale(0.015625)"/>
       <path id="DejaVuSans-73" d="M 2834 3397 
L 2834 2853 
Q 2591 2978 2328 3040 
Q 2066 3103 1784 3103 
Q 1356 3103 1142 2972 
Q 928 2841 928 2578 
Q 928 2378 1081 2264 
Q 1234 2150 1697 2047 
L 1894 2003 
Q 2506 1872 2764 1633 
Q 3022 1394 3022 966 
Q 3022 478 2636 193 
Q 2250 -91 1575 -91 
Q 1294 -91 989 -36 
Q 684 19 347 128 
L 347 722 
Q 666 556 975 473 
Q 1284 391 1588 391 
Q 1994 391 2212 530 
Q 2431 669 2431 922 
Q 2431 1156 2273 1281 
Q 2116 1406 1581 1522 
L 1381 1569 
Q 847 1681 609 1914 
Q 372 2147 372 2553 
Q 372 3047 722 3315 
Q 1072 3584 1716 3584 
Q 2034 3584 2315 3537 
Q 2597 3491 2834 3397 
z
" transform="scale(0.015625)"/>
       <path id="DejaVuSans-29" d="M 513 4856 
L 1013 4856 
Q 1481 4119 1714 3412 
Q 1947 2706 1947 2009 
Q 1947 1309 1714 600 
Q 1481 -109 1013 -844 
L 513 -844 
Q 928 -128 1133 580 
Q 1338 1288 1338 2009 
Q 1338 2731 1133 3434 
Q 928 4138 513 4856 
z
" transform="scale(0.015625)"/>
      </defs>
      <use xlink:href="#DejaVuSans-54"/>
      <use xlink:href="#DejaVuSans-72" x="46.333984"/>
      <use xlink:href="#DejaVuSans-61" x="87.447266"/>
      <use xlink:href="#DejaVuSans-69" x="148.726562"/>
      <use xlink:href="#DejaVuSans-6e" x="176.509766"/>
      <use xlink:href="#DejaVuSans-69" x="239.888672"/>
      <use xlink:href="#DejaVuSans-6e" x="267.671875"/>
      <use xlink:href="#DejaVuSans-67" x="331.050781"/>
      <use xlink:href="#DejaVuSans-20" x="394.527344"/>
      <use xlink:href="#DejaVuSans-74" x="426.314453"/>
      <use xlink:href="#DejaVuSans-69" x="465.523438"/>
      <use xlink:href="#DejaVuSans-6d" x="493.306641"/>
      <use xlink:href="#DejaVuSans-65" x="590.71875"/>
      <use xlink:href="#DejaVuSans-20" x="652.242188"/>
      <use xlink:href="#DejaVuSans-28" x="684.029297"/>
      <use xlink:href="#DejaVuSans-73" x="723.042969"/>
      <use xlink:href="#DejaVuSans-29" x="775.142578"/>
     </g>
    </g>
   </g>
   <g id="matplotlib.axis_2">
    <g id="ytick_1">
     <g id="line2d_63">
      <path d="M 53.37 214.461059 
L 563.04 214.461059 
" clip-path="url(#p4750d8d5fb)" style="fill: none; stroke: #696969; stroke-opacity: 0.3; stroke-linecap: round"/>
     </g>
     <g id="line2d_64">
      <defs>
       <path id="m1a1c972869" d="M 0 0 
L -6 0 
" style="stroke: #696969; stroke-width: 1.25"/>
      </defs>
      <g>
       <use xlink:href="#m1a1c972869" x="53.37" y="214.461059" style="fill: #696969; stroke: #696969; stroke-width: 1.25"/>
      </g>
     </g>
     <g id="text_5">
      <!-- 70 -->
      <g style="fill: #696969" transform="translate(29.8725 218.640199) scale(0.11 -0.11)">
       <defs>
        <path id="DejaVuSans-37" d="M 525 4666 
L 3525 4666 
L 3525 4397 
L 1831 0 
L 1172 0 
L 2766 4134 
L 525 4134 
L 525 4666 
z
" transform="scale(0.015625)"/>
       </defs>
       <use xlink:href="#DejaVuSans-37"/>
       <use xlink:href="#DejaVuSans-30" x="63.623047"/>
      </g>
     </g>
    </g>
    <g id="ytick_2">
     <g id="line2d_65">
      <path d="M 53.37 174.130245 
L 563.04 174.130245 
" clip-path="url(#p4750d8d5fb)" style="fill: none; stroke: #696969; stroke-opacity: 0.3; stroke-linecap: round"/>
     </g>
     <g id="line2d_66">
      <g>
       <use xlink:href="#m1a1c972869" x="53.37" y="174.130245" style="fill: #696969; stroke: #696969; stroke-width: 1.25"/>
      </g>
     </g>
     <g id="text_6">
      <!-- 75 -->
      <g style="fill: #696969" transform="translate(29.8725 178.309386) scale(0.11 -0.11)">
       <defs>
        <path id="DejaVuSans-35" d="M 691 4666 
L 3169 4666 
L 3169 4134 
L 1269 4134 
L 1269 2991 
Q 1406 3038 1543 3061 
Q 1681 3084 1819 3084 
Q 2600 3084 3056 2656 
Q 3513 2228 3513 1497 
Q 3513 744 3044 326 
Q 2575 -91 1722 -91 
Q 1428 -91 1123 -41 
Q 819 9 494 109 
L 494 744 
Q 775 591 1075 516 
Q 1375 441 1709 441 
Q 2250 441 2565 725 
Q 2881 1009 2881 1497 
Q 2881 1984 2565 2268 
Q 2250 2553 1709 2553 
Q 1456 2553 1204 2497 
Q 953 2441 691 2322 
L 691 4666 
z
" transform="scale(0.015625)"/>
       </defs>
       <use xlink:href="#DejaVuSans-37"/>
       <use xlink:href="#DejaVuSans-35" x="63.623047"/>
      </g>
     </g>
    </g>
    <g id="ytick_3">
     <g id="line2d_67">
      <path d="M 53.37 133.799432 
L 563.04 133.799432 
" clip-path="url(#p4750d8d5fb)" style="fill: none; stroke: #696969; stroke-opacity: 0.3; stroke-linecap: round"/>
     </g>
     <g id="line2d_68">
      <g>
       <use xlink:href="#m1a1c972869" x="53.37" y="133.799432" style="fill: #696969; stroke: #696969; stroke-width: 1.25"/>
      </g>
     </g>
     <g id="text_7">
      <!-- 80 -->
      <g style="fill: #696969" transform="translate(29.8725 137.978572) scale(0.11 -0.11)">
       <defs>
        <path id="DejaVuSans-38" d="M 2034 2216 
Q 1584 2216 1326 1975 
Q 1069 1734 1069 1313 
Q 1069 891 1326 650 
Q 1584 409 2034 409 
Q 2484 409 2743 651 
Q 3003 894 3003 1313 
Q 3003 1734 2745 1975 
Q 2488 2216 2034 2216 
z
M 1403 2484 
Q 997 2584 770 2862 
Q 544 3141 544 3541 
Q 544 4100 942 4425 
Q 1341 4750 2034 4750 
Q 2731 4750 3128 4425 
Q 3525 4100 3525 3541 
Q 3525 3141 3298 2862 
Q 3072 2584 2669 2484 
Q 3125 2378 3379 2068 
Q 3634 1759 3634 1313 
Q 3634 634 3220 271 
Q 2806 -91 2034 -91 
Q 1263 -91 848 271 
Q 434 634 434 1313 
Q 434 1759 690 2068 
Q 947 2378 1403 2484 
z
M 1172 3481 
Q 1172 3119 1398 2916 
Q 1625 2713 2034 2713 
Q 2441 2713 2670 2916 
Q 2900 3119 2900 3481 
Q 2900 3844 2670 4047 
Q 2441 4250 2034 4250 
Q 1625 4250 1398 4047 
Q 1172 3844 1172 3481 
z
" transform="scale(0.015625)"/>
       </defs>
       <use xlink:href="#DejaVuSans-38"/>
       <use xlink:href="#DejaVuSans-30" x="63.623047"/>
      </g>
     </g>
    </g>
    <g id="ytick_4">
     <g id="line2d_69">
      <path d="M 53.37 93.468618 
L 563.04 93.468618 
" clip-path="url(#p4750d8d5fb)" style="fill: none; stroke: #696969; stroke-opacity: 0.3; stroke-linecap: round"/>
     </g>
     <g id="line2d_70">
      <g>
       <use xlink:href="#m1a1c972869" x="53.37" y="93.468618" style="fill: #696969; stroke: #696969; stroke-width: 1.25"/>
      </g>
     </g>
     <g id="text_8">
      <!-- 85 -->
      <g style="fill: #696969" transform="translate(29.8725 97.647759) scale(0.11 -0.11)">
       <use xlink:href="#DejaVuSans-38"/>
       <use xlink:href="#DejaVuSans-35" x="63.623047"/>
      </g>
     </g>
    </g>
    <g id="ytick_5">
     <g id="line2d_71">
      <path d="M 53.37 53.137804 
L 563.04 53.137804 
" clip-path="url(#p4750d8d5fb)" style="fill: none; stroke: #696969; stroke-opacity: 0.3; stroke-linecap: round"/>
     </g>
     <g id="line2d_72">
      <g>
       <use xlink:href="#m1a1c972869" x="53.37" y="53.137804" style="fill: #696969; stroke: #696969; stroke-width: 1.25"/>
      </g>
     </g>
     <g id="text_9">
      <!-- 90 -->
      <g style="fill: #696969" transform="translate(29.8725 57.316945) scale(0.11 -0.11)">
       <defs>
        <path id="DejaVuSans-39" d="M 703 97 
L 703 672 
Q 941 559 1184 500 
Q 1428 441 1663 441 
Q 2288 441 2617 861 
Q 2947 1281 2994 2138 
Q 2813 1869 2534 1725 
Q 2256 1581 1919 1581 
Q 1219 1581 811 2004 
Q 403 2428 403 3163 
Q 403 3881 828 4315 
Q 1253 4750 1959 4750 
Q 2769 4750 3195 4129 
Q 3622 3509 3622 2328 
Q 3622 1225 3098 567 
Q 2575 -91 1691 -91 
Q 1453 -91 1209 -44 
Q 966 3 703 97 
z
M 1959 2075 
Q 2384 2075 2632 2365 
Q 2881 2656 2881 3163 
Q 2881 3666 2632 3958 
Q 2384 4250 1959 4250 
Q 1534 4250 1286 3958 
Q 1038 3666 1038 3163 
Q 1038 2656 1286 2365 
Q 1534 2075 1959 2075 
z
" transform="scale(0.015625)"/>
       </defs>
       <use xlink:href="#DejaVuSans-39"/>
       <use xlink:href="#DejaVuSans-30" x="63.623047"/>
      </g>
     </g>
    </g>
    <g id="text_10">
     <!-- Accuracy (%) -->
     <g style="fill: #696969" transform="translate(23.376875 171.761438) rotate(-90) scale(0.12 -0.12)">
      <defs>
       <path id="DejaVuSans-41" d="M 2188 4044 
L 1331 1722 
L 3047 1722 
L 2188 4044 
z
M 1831 4666 
L 2547 4666 
L 4325 0 
L 3669 0 
L 3244 1197 
L 1141 1197 
L 716 0 
L 50 0 
L 1831 4666 
z
" transform="scale(0.015625)"/>
       <path id="DejaVuSans-63" d="M 3122 3366 
L 3122 2828 
Q 2878 2963 2633 3030 
Q 2388 3097 2138 3097 
Q 1578 3097 1268 2742 
Q 959 2388 959 1747 
Q 959 1106 1268 751 
Q 1578 397 2138 397 
Q 2388 397 2633 464 
Q 2878 531 3122 666 
L 3122 134 
Q 2881 22 2623 -34 
Q 2366 -91 2075 -91 
Q 1284 -91 818 406 
Q 353 903 353 1747 
Q 353 2603 823 3093 
Q 1294 3584 2113 3584 
Q 2378 3584 2631 3529 
Q 2884 3475 3122 3366 
z
" transform="scale(0.015625)"/>
       <path id="DejaVuSans-75" d="M 544 1381 
L 544 3500 
L 1119 3500 
L 1119 1403 
Q 1119 906 1312 657 
Q 1506 409 1894 409 
Q 2359 409 2629 706 
Q 2900 1003 2900 1516 
L 2900 3500 
L 3475 3500 
L 3475 0 
L 2900 0 
L 2900 538 
Q 2691 219 2414 64 
Q 2138 -91 1772 -91 
Q 1169 -91 856 284 
Q 544 659 544 1381 
z
M 1991 3584 
L 1991 3584 
z
" transform="scale(0.015625)"/>
       <path id="DejaVuSans-79" d="M 2059 -325 
Q 1816 -950 1584 -1140 
Q 1353 -1331 966 -1331 
L 506 -1331 
L 506 -850 
L 844 -850 
Q 1081 -850 1212 -737 
Q 1344 -625 1503 -206 
L 1606 56 
L 191 3500 
L 800 3500 
L 1894 763 
L 2988 3500 
L 3597 3500 
L 2059 -325 
z
" transform="scale(0.015625)"/>
       <path id="DejaVuSans-25" d="M 4653 2053 
Q 4381 2053 4226 1822 
Q 4072 1591 4072 1178 
Q 4072 772 4226 539 
Q 4381 306 4653 306 
Q 4919 306 5073 539 
Q 5228 772 5228 1178 
Q 5228 1588 5073 1820 
Q 4919 2053 4653 2053 
z
M 4653 2450 
Q 5147 2450 5437 2106 
Q 5728 1763 5728 1178 
Q 5728 594 5436 251 
Q 5144 -91 4653 -91 
Q 4153 -91 3862 251 
Q 3572 594 3572 1178 
Q 3572 1766 3864 2108 
Q 4156 2450 4653 2450 
z
M 1428 4353 
Q 1159 4353 1004 4120 
Q 850 3888 850 3481 
Q 850 3069 1003 2837 
Q 1156 2606 1428 2606 
Q 1700 2606 1854 2837 
Q 2009 3069 2009 3481 
Q 2009 3884 1853 4118 
Q 1697 4353 1428 4353 
z
M 4250 4750 
L 4750 4750 
L 1831 -91 
L 1331 -91 
L 4250 4750 
z
M 1428 4750 
Q 1922 4750 2215 4408 
Q 2509 4066 2509 3481 
Q 2509 2891 2217 2550 
Q 1925 2209 1428 2209 
Q 931 2209 642 2551 
Q 353 2894 353 3481 
Q 353 4063 643 4406 
Q 934 4750 1428 4750 
z
" transform="scale(0.015625)"/>
      </defs>
      <use xlink:href="#DejaVuSans-41"/>
      <use xlink:href="#DejaVuSans-63" x="66.658203"/>
      <use xlink:href="#DejaVuSans-63" x="121.638672"/>
      <use xlink:href="#DejaVuSans-75" x="176.619141"/>
      <use xlink:href="#DejaVuSans-72" x="239.998047"/>
      <use xlink:href="#DejaVuSans-61" x="281.111328"/>
      <use xlink:href="#DejaVuSans-63" x="342.390625"/>
      <use xlink:href="#DejaVuSans-79" x="397.371094"/>
      <use xlink:href="#DejaVuSans-20" x="456.550781"/>
      <use xlink:href="#DejaVuSans-28" x="488.337891"/>
      <use xlink:href="#DejaVuSans-25" x="527.351562"/>
      <use xlink:href="#DejaVuSans-29" x="622.371094"/>
     </g>
    </g>
   </g>
   <g id="text_11">
    <!-- Accuracy vs. Traintime -->
    <g style="fill: #696969" transform="translate(240.465937 23.04) scale(0.12 -0.12)">
     <defs>
      <path id="DejaVuSans-76" d="M 191 3500 
L 800 3500 
L 1894 563 
L 2988 3500 
L 3597 3500 
L 2284 0 
L 1503 0 
L 191 3500 
z
" transform="scale(0.015625)"/>
      <path id="DejaVuSans-2e" d="M 684 794 
L 1344 794 
L 1344 0 
L 684 0 
L 684 794 
z
" transform="scale(0.015625)"/>
     </defs>
     <use xlink:href="#DejaVuSans-41"/>
     <use xlink:href="#DejaVuSans-63" x="66.658203"/>
     <use xlink:href="#DejaVuSans-63" x="121.638672"/>
     <use xlink:href="#DejaVuSans-75" x="176.619141"/>
     <use xlink:href="#DejaVuSans-72" x="239.998047"/>
     <use xlink:href="#DejaVuSans-61" x="281.111328"/>
     <use xlink:href="#DejaVuSans-63" x="342.390625"/>
     <use xlink:href="#DejaVuSans-79" x="397.371094"/>
     <use xlink:href="#DejaVuSans-20" x="456.550781"/>
     <use xlink:href="#DejaVuSans-76" x="488.337891"/>
     <use xlink:href="#DejaVuSans-73" x="547.517578"/>
     <use xlink:href="#DejaVuSans-2e" x="599.617188"/>
     <use xlink:href="#DejaVuSans-20" x="631.404297"/>
     <use xlink:href="#DejaVuSans-54" x="663.191406"/>
     <use xlink:href="#DejaVuSans-72" x="709.525391"/>
     <use xlink:href="#DejaVuSans-61" x="750.638672"/>
     <use xlink:href="#DejaVuSans-69" x="811.917969"/>
     <use xlink:href="#DejaVuSans-6e" x="839.701172"/>
     <use xlink:href="#DejaVuSans-74" x="903.080078"/>
     <use xlink:href="#DejaVuSans-69" x="942.289062"/>
     <use xlink:href="#DejaVuSans-6d" x="970.072266"/>
     <use xlink:href="#DejaVuSans-65" x="1067.484375"/>
    </g>
   </g>
   <g id="legend_1">
    <g id="patch_5">
     <path d="M 61.07 229.616 
L 165.920625 229.616 
Q 168.120625 229.616 168.120625 227.416 
L 168.120625 163.93225 
Q 168.120625 161.73225 165.920625 161.73225 
L 61.07 161.73225 
Q 58.87 161.73225 58.87 163.93225 
L 58.87 227.416 
Q 58.87 229.616 61.07 229.616 
z
" style="fill: #ffffff; opacity: 0.8; stroke: #cccccc; stroke-linejoin: miter"/>
    </g>
    <g id="LineCollection_9">
     <path d="M 68.77 170.640531 
L 79.77 170.640531 
" style="fill: none; stroke: #4c72b0; stroke-width: 1.5"/>
    </g>
    <g id="LineCollection_10">
     <path d="M 74.27 176.140531 
L 74.27 165.140531 
" style="fill: none; stroke: #4c72b0; stroke-width: 1.5"/>
    </g>
    <g id="line2d_73">
     <path d="M 63.27 170.640531 
L 85.27 170.640531 
" style="fill: none; stroke: #4c72b0; stroke-width: 1.5; stroke-linecap: round"/>
    </g>
    <g id="line2d_74">
     <g>
      <use xlink:href="#m5c6a0035f1" x="74.27" y="170.640531" style="fill: #4c72b0; stroke: #4c72b0"/>
     </g>
    </g>
    <g id="text_12">
     <!-- Nyckel -->
     <g style="fill: #696969" transform="translate(94.07 174.490531) scale(0.11 -0.11)">
      <defs>
       <path id="DejaVuSans-4e" d="M 628 4666 
L 1478 4666 
L 3547 763 
L 3547 4666 
L 4159 4666 
L 4159 0 
L 3309 0 
L 1241 3903 
L 1241 0 
L 628 0 
L 628 4666 
z
" transform="scale(0.015625)"/>
       <path id="DejaVuSans-6b" d="M 581 4863 
L 1159 4863 
L 1159 1991 
L 2875 3500 
L 3609 3500 
L 1753 1863 
L 3688 0 
L 2938 0 
L 1159 1709 
L 1159 0 
L 581 0 
L 581 4863 
z
" transform="scale(0.015625)"/>
       <path id="DejaVuSans-6c" d="M 603 4863 
L 1178 4863 
L 1178 0 
L 603 0 
L 603 4863 
z
" transform="scale(0.015625)"/>
      </defs>
      <use xlink:href="#DejaVuSans-4e"/>
      <use xlink:href="#DejaVuSans-79" x="74.804688"/>
      <use xlink:href="#DejaVuSans-63" x="133.984375"/>
      <use xlink:href="#DejaVuSans-6b" x="188.964844"/>
      <use xlink:href="#DejaVuSans-65" x="243.25"/>
      <use xlink:href="#DejaVuSans-6c" x="304.773438"/>
     </g>
    </g>
    <g id="LineCollection_11">
     <path d="M 68.77 186.786469 
L 79.77 186.786469 
" style="fill: none; stroke: #dd8452; stroke-width: 1.5"/>
    </g>
    <g id="LineCollection_12">
     <path d="M 74.27 192.286469 
L 74.27 181.286469 
" style="fill: none; stroke: #dd8452; stroke-width: 1.5"/>
    </g>
    <g id="line2d_75">
     <path d="M 63.27 186.786469 
L 85.27 186.786469 
" style="fill: none; stroke: #dd8452; stroke-width: 1.5; stroke-linecap: round"/>
    </g>
    <g id="line2d_76">
     <g>
      <use xlink:href="#m2573878e28" x="74.27" y="186.786469" style="fill: #dd8452; stroke: #dd8452"/>
     </g>
    </g>
    <g id="text_13">
     <!-- Google -->
     <g style="fill: #696969" transform="translate(94.07 190.636469) scale(0.11 -0.11)">
      <defs>
       <path id="DejaVuSans-47" d="M 3809 666 
L 3809 1919 
L 2778 1919 
L 2778 2438 
L 4434 2438 
L 4434 434 
Q 4069 175 3628 42 
Q 3188 -91 2688 -91 
Q 1594 -91 976 548 
Q 359 1188 359 2328 
Q 359 3472 976 4111 
Q 1594 4750 2688 4750 
Q 3144 4750 3555 4637 
Q 3966 4525 4313 4306 
L 4313 3634 
Q 3963 3931 3569 4081 
Q 3175 4231 2741 4231 
Q 1884 4231 1454 3753 
Q 1025 3275 1025 2328 
Q 1025 1384 1454 906 
Q 1884 428 2741 428 
Q 3075 428 3337 486 
Q 3600 544 3809 666 
z
" transform="scale(0.015625)"/>
       <path id="DejaVuSans-6f" d="M 1959 3097 
Q 1497 3097 1228 2736 
Q 959 2375 959 1747 
Q 959 1119 1226 758 
Q 1494 397 1959 397 
Q 2419 397 2687 759 
Q 2956 1122 2956 1747 
Q 2956 2369 2687 2733 
Q 2419 3097 1959 3097 
z
M 1959 3584 
Q 2709 3584 3137 3096 
Q 3566 2609 3566 1747 
Q 3566 888 3137 398 
Q 2709 -91 1959 -91 
Q 1206 -91 779 398 
Q 353 888 353 1747 
Q 353 2609 779 3096 
Q 1206 3584 1959 3584 
z
" transform="scale(0.015625)"/>
      </defs>
      <use xlink:href="#DejaVuSans-47"/>
      <use xlink:href="#DejaVuSans-6f" x="77.490234"/>
      <use xlink:href="#DejaVuSans-6f" x="138.671875"/>
      <use xlink:href="#DejaVuSans-67" x="199.853516"/>
      <use xlink:href="#DejaVuSans-6c" x="263.330078"/>
      <use xlink:href="#DejaVuSans-65" x="291.113281"/>
     </g>
    </g>
    <g id="LineCollection_13">
     <path d="M 68.77 202.932406 
L 79.77 202.932406 
" style="fill: none; stroke: #55a868; stroke-width: 1.5"/>
    </g>
    <g id="LineCollection_14">
     <path d="M 74.27 208.432406 
L 74.27 197.432406 
" style="fill: none; stroke: #55a868; stroke-width: 1.5"/>
    </g>
    <g id="line2d_77">
     <path d="M 63.27 202.932406 
L 85.27 202.932406 
" style="fill: none; stroke: #55a868; stroke-width: 1.5; stroke-linecap: round"/>
    </g>
    <g id="line2d_78">
     <g>
      <use xlink:href="#mea0dc1d50e" x="74.27" y="202.932406" style="fill: #55a868; stroke: #55a868"/>
     </g>
    </g>
    <g id="text_14">
     <!-- Huggingface -->
     <g style="fill: #696969" transform="translate(94.07 206.782406) scale(0.11 -0.11)">
      <defs>
       <path id="DejaVuSans-48" d="M 628 4666 
L 1259 4666 
L 1259 2753 
L 3553 2753 
L 3553 4666 
L 4184 4666 
L 4184 0 
L 3553 0 
L 3553 2222 
L 1259 2222 
L 1259 0 
L 628 0 
L 628 4666 
z
" transform="scale(0.015625)"/>
       <path id="DejaVuSans-66" d="M 2375 4863 
L 2375 4384 
L 1825 4384 
Q 1516 4384 1395 4259 
Q 1275 4134 1275 3809 
L 1275 3500 
L 2222 3500 
L 2222 3053 
L 1275 3053 
L 1275 0 
L 697 0 
L 697 3053 
L 147 3053 
L 147 3500 
L 697 3500 
L 697 3744 
Q 697 4328 969 4595 
Q 1241 4863 1831 4863 
L 2375 4863 
z
" transform="scale(0.015625)"/>
      </defs>
      <use xlink:href="#DejaVuSans-48"/>
      <use xlink:href="#DejaVuSans-75" x="75.195312"/>
      <use xlink:href="#DejaVuSans-67" x="138.574219"/>
      <use xlink:href="#DejaVuSans-67" x="202.050781"/>
      <use xlink:href="#DejaVuSans-69" x="265.527344"/>
      <use xlink:href="#DejaVuSans-6e" x="293.310547"/>
      <use xlink:href="#DejaVuSans-67" x="356.689453"/>
      <use xlink:href="#DejaVuSans-66" x="420.166016"/>
      <use xlink:href="#DejaVuSans-61" x="455.371094"/>
      <use xlink:href="#DejaVuSans-63" x="516.650391"/>
      <use xlink:href="#DejaVuSans-65" x="571.630859"/>
     </g>
    </g>
    <g id="LineCollection_15">
     <path d="M 68.77 219.078344 
L 79.77 219.078344 
" style="fill: none; stroke: #f3a0f2; stroke-width: 1.5"/>
    </g>
    <g id="LineCollection_16">
     <path d="M 74.27 224.578344 
L 74.27 213.578344 
" style="fill: none; stroke: #f3a0f2; stroke-width: 1.5"/>
    </g>
    <g id="line2d_79">
     <path d="M 63.27 219.078344 
L 85.27 219.078344 
" style="fill: none; stroke: #f3a0f2; stroke-width: 1.5; stroke-linecap: round"/>
    </g>
    <g id="line2d_80">
     <g>
      <use xlink:href="#mbe9b9142c6" x="74.27" y="219.078344" style="fill: #f3a0f2; stroke: #f3a0f2"/>
     </g>
    </g>
    <g id="text_15">
     <!-- AWS -->
     <g style="fill: #696969" transform="translate(94.07 222.928344) scale(0.11 -0.11)">
      <defs>
       <path id="DejaVuSans-57" d="M 213 4666 
L 850 4666 
L 1831 722 
L 2809 4666 
L 3519 4666 
L 4500 722 
L 5478 4666 
L 6119 4666 
L 4947 0 
L 4153 0 
L 3169 4050 
L 2175 0 
L 1381 0 
L 213 4666 
z
" transform="scale(0.015625)"/>
       <path id="DejaVuSans-53" d="M 3425 4513 
L 3425 3897 
Q 3066 4069 2747 4153 
Q 2428 4238 2131 4238 
Q 1616 4238 1336 4038 
Q 1056 3838 1056 3469 
Q 1056 3159 1242 3001 
Q 1428 2844 1947 2747 
L 2328 2669 
Q 3034 2534 3370 2195 
Q 3706 1856 3706 1288 
Q 3706 609 3251 259 
Q 2797 -91 1919 -91 
Q 1588 -91 1214 -16 
Q 841 59 441 206 
L 441 856 
Q 825 641 1194 531 
Q 1563 422 1919 422 
Q 2459 422 2753 634 
Q 3047 847 3047 1241 
Q 3047 1584 2836 1778 
Q 2625 1972 2144 2069 
L 1759 2144 
Q 1053 2284 737 2584 
Q 422 2884 422 3419 
Q 422 4038 858 4394 
Q 1294 4750 2059 4750 
Q 2388 4750 2728 4690 
Q 3069 4631 3425 4513 
z
" transform="scale(0.015625)"/>
      </defs>
      <use xlink:href="#DejaVuSans-41"/>
      <use xlink:href="#DejaVuSans-57" x="62.908203"/>
      <use xlink:href="#DejaVuSans-53" x="161.785156"/>
     </g>
    </g>
   </g>
  </g>
 </g>
 <defs>
  <clipPath id="p4750d8d5fb">
   <rect x="53.37" y="29.04" width="509.67" height="206.076"/>
  </clipPath>
 </defs>
</svg>
